<svg xmlns="http://www.w3.org/2000/svg" xmlns:xlink="http://www.w3.org/1999/xlink" viewBox="0 0 559 559"><defs><style>.cls-1{isolation:isolate;}.cls-2{fill:#95daf2;}.cls-3{fill:#e6e9ed;opacity:0.9;}.cls-3,.cls-7{mix-blend-mode:multiply;}.cls-4{fill:#e6eaee;}.cls-5{fill:#f6f8fb;}.cls-6{fill:#b3dd86;}.cls-7{fill:#c4d47b;opacity:0.46;}.cls-8{fill:#7a834f;}.cls-9{fill:url(#linear-gradient);}.cls-10{fill:url(#linear-gradient-2);}.cls-11{fill:url(#linear-gradient-3);}.cls-12{fill:url(#linear-gradient-4);}.cls-13{fill:url(#linear-gradient-5);}.cls-14{fill:url(#linear-gradient-6);}.cls-15{fill:#776252;}.cls-16{fill:#928175;}</style><linearGradient id="linear-gradient" x1="649.58" y1="436.91" x2="638.51" y2="427.12" gradientTransform="translate(-32.79 69.16) rotate(-5.6)" gradientUnits="userSpaceOnUse"><stop offset="0" stop-color="#84896a"/><stop offset="0.52" stop-color="#7a834f"/><stop offset="1" stop-color="#4b5623"/></linearGradient><linearGradient id="linear-gradient-2" x1="649.81" y1="436.68" x2="638.72" y2="426.87" gradientTransform="translate(-32.79 69.16) rotate(-5.6)" gradientUnits="userSpaceOnUse"><stop offset="0" stop-color="#84896a"/><stop offset="0.52" stop-color="#707944"/><stop offset="1" stop-color="#233400"/></linearGradient><linearGradient id="linear-gradient-3" x1="639.58" y1="429.3" x2="646.59" y2="435.32" gradientTransform="translate(-32.79 69.16) rotate(-5.6)" gradientUnits="userSpaceOnUse"><stop offset="0" stop-color="#553d1c"/><stop offset="0.7" stop-color="#ae7650"/><stop offset="1" stop-color="#c58162"/></linearGradient><linearGradient id="linear-gradient-4" x1="645.22" y1="391.85" x2="645.22" y2="468.84" xlink:href="#linear-gradient-3"/><linearGradient id="linear-gradient-5" x1="639.1" y1="429.85" x2="646.1" y2="435.87" gradientTransform="translate(-32.79 69.16) rotate(-5.6)" gradientUnits="userSpaceOnUse"><stop offset="0" stop-color="#553d1c"/><stop offset="0.7" stop-color="#9a643f"/></linearGradient><linearGradient id="linear-gradient-6" x1="644.24" y1="391.95" x2="644.24" y2="468.75" xlink:href="#linear-gradient-5"/></defs><title>icecream</title><g class="cls-1"><g id="Warstwa_1" data-name="Warstwa 1"><path id="back" class="cls-2" d="M900.39,514.5c0,154.36-125.14,279.5-279.5,279.5s-279.5-125.14-279.5-279.5S466.53,235,620.89,235,900.39,360.13,900.39,514.5Z" transform="translate(-341.39 -235)"/><path id="shadow" class="cls-3" d="M871.5,530H870.4c15.83-19.5,27.14-33.52,27.68-34.18a2,2,0,1,0-3-2.46c-.53.66-11.53,14.22-27,33.19H867C882.78,507,894.1,493,894.63,492.35a2,2,0,1,0-3-2.47c-.53.66-11.58,14.19-27,33.19H863.5c15.83-19.51,27.15-33.52,27.68-34.18a2,2,0,1,0-3-2.47c-.53.66-11.58,14.19-27,33.19h-1.09c15.83-19.5,27.14-33.51,27.67-34.17a2,2,0,1,0-3-2.46c-.53.66-11.58,14.19-27,33.19H856.6c15.83-19.51,27.14-33.52,27.68-34.18a2,2,0,1,0-3-2.46c-.53.66-11.58,14.19-27,33.19h-1.09c15.82-19.5,27.14-33.52,27.68-34.18a2,2,0,1,0-3-2.46c-.53.66-11.58,14.19-27,33.19H849.7c15.83-19.51,27.14-33.52,27.68-34.18a2,2,0,1,0-3-2.47c-.53.66-11.58,14.2-27,33.19h-1.09c15.83-19.51,27.14-33.52,27.68-34.18a2,2,0,1,0-3-2.47c-.54.66-11.58,14.2-27,33.19H842.8c15.83-19.5,27.14-33.51,27.68-34.17a2,2,0,1,0-3-2.46c-.53.66-11.53,14.21-27,33.18h-1.13c15.82-19.5,27.14-33.51,27.68-34.18a2,2,0,1,0-3-2.46c-.54.66-11.59,14.19-27,33.19H835.9c15.83-19.5,27.14-33.52,27.67-34.17a2,2,0,1,0-3-2.47c-.53.66-11.58,14.2-27,33.19h-1.09c15.83-19.51,27.14-33.52,27.68-34.18a2,2,0,1,0-3-2.47c-.53.66-11.58,14.2-27,33.19H829c15.83-19.51,27.14-33.52,27.68-34.18a2,2,0,1,0-3-2.46c-.53.66-11.58,14.19-27,33.19h-1.09c15.82-19.5,27.14-33.52,27.68-34.18a2,2,0,1,0-3-2.46c-.53.66-11.58,14.19-27,33.19H822.1c15.83-19.51,27.14-33.52,27.68-34.18a2,2,0,1,0-3-2.47c-.53.66-11.58,14.2-27,33.19h-1.09c15.83-19.51,27.15-33.52,27.68-34.17a2,2,0,1,0-3-2.47c-.53.66-11.58,14.2-27,33.19h-1.09c15.83-19.51,27.14-33.51,27.68-34.18a2,2,0,1,0-3-2.46c-.53.66-11.58,14.19-27,33.19h-1.08c15.82-19.51,27.14-33.52,27.67-34.18a2,2,0,1,0-3-2.45c-.53.66-11.59,14.19-27,33.19h-1.09c15.82-19.51,27.14-33.53,27.68-34.19a2,2,0,1,0-3-2.47c-.53.66-11.58,14.19-27,33.19h-1.09c15.83-19.5,27.14-33.51,27.67-34.17a2,2,0,1,0-3-2.47c-.54.66-11.58,14.2-27,33.19h-1.09c15.83-19.51,27.14-33.52,27.68-34.18a2,2,0,1,0-3-2.46c-.53.66-11.53,14.21-27,33.19h-1.13c15.82-19.5,27.14-33.52,27.67-34.18a2,2,0,1,0-3-2.46c-.53.66-11.58,14.19-27,33.19h-1.09c15.83-19.5,27.14-33.52,27.68-34.17a2,2,0,1,0-3-2.47c-.53.66-11.58,14.2-27,33.19H791c15.83-19.51,27.14-33.52,27.68-34.18a2,2,0,1,0-3-2.47c-.53.66-11.58,14.2-27,33.19h-1.09c15.82-19.5,27.14-33.52,27.67-34.18a2,2,0,1,0-3-2.46c-.53.66-11.58,14.19-27,33.19h-1.09c15.83-19.51,27.14-33.52,27.68-34.18a2,2,0,1,0-3-2.46c-.53.66-11.58,14.19-27,33.19h-1.09c15.82-19.5,27.14-33.52,27.68-34.17a2,2,0,1,0-3-2.46c-.53.66-11.58,14.2-27,33.19h-1.09c15.83-19.51,27.15-33.52,27.68-34.18a2,2,0,1,0-3-2.47c-.54.66-11.58,14.2-27,33.19h-1.09c15.83-19.5,27.14-33.51,27.67-34.17a2,2,0,1,0-3-2.46c-.53.66-11.53,14.21-27,33.19h-1.14c15.83-19.5,27.14-33.52,27.67-34.18a2,2,0,1,0-3-2.46c-.53.65-11.58,14.19-27,33.19h-1.09c15.83-19.5,27.14-33.52,27.68-34.17a2,2,0,1,0-3-2.47c-.53.66-11.58,14.2-27,33.19h-1.09c15.83-19.51,27.14-33.52,27.68-34.18a2,2,0,1,0-3-2.47c-.53.66-11.58,14.2-27,33.19H760C775.81,400,787.13,386,787.66,385.37a2,2,0,1,0-3-2.46c-.53.66-11.58,14.19-27,33.19h-1.09c15.83-19.51,27.14-33.52,27.68-34.18a2,2,0,1,0-3-2.46c-.53.66-11.58,14.19-27,33.19h-1.09c15.83-19.5,27.14-33.52,27.68-34.18a2,2,0,1,0-3-2.46c-.53.66-11.58,14.19-27,33.19h-1.09c15.83-19.51,27.15-33.52,27.68-34.17a2,2,0,1,0-3-2.47c-.53.66-11.53,14.21-27,33.19h-1.13c15.83-19.51,27.14-33.52,27.68-34.17a2,2,0,1,0-3-2.47c-.53.67-11.53,14.22-27,33.19h-1.14c15.83-19.5,27.14-33.51,27.67-34.17a2,2,0,1,0-3-2.46c-.53.66-11.58,14.19-27,33.19h-1.09c15.83-19.5,27.15-33.52,27.68-34.17a2,2,0,1,0-3-2.47c-.53.66-11.58,14.19-27,33.18h-1.09c15.82-19.5,27.14-33.51,27.67-34.17a2,2,0,1,0-3-2.47c-.53.66-11.58,14.2-27,33.19h-1.09c15.82-19.51,27.14-33.52,27.67-34.18a2,2,0,1,0-3-2.46c-.53.66-11.58,14.19-27,33.19h-1.09C744.76,369,756.07,355,756.61,354.32a2,2,0,1,0-3-2.46c-.53.66-11.58,14.19-27,33.19h-1.09c15.83-19.5,27.14-33.52,27.68-34.18a2,2,0,1,0-3-2.46c-.54.66-11.58,14.19-27,33.19H722c15.83-19.51,27.14-33.52,27.68-34.17a2,2,0,1,0-3-2.47c-.56.7-12.88,15.86-29.78,36.65h-1.12c17.27-21.28,29.91-36.93,30.48-37.63a2,2,0,1,0-3-2.46c-.59.73-14.31,17.53-32.61,40.09h-1.09c18.69-23,32.68-40.34,33.28-41.08a2,2,0,1,0-3-2.47c-.62.77-15.73,19.27-35.42,43.54h-1.09c20.08-24.73,35.45-43.75,36.07-44.53a2,2,0,1,0-3-2.47c-.65.82-17.17,21-38.21,47H697c21.45-26.39,38.23-47.17,38.88-48a2,2,0,1,0-3-2.47c-.68.85-18.65,22.85-41,50.44h-1.11l2.11-2.59c21.78-26.8,38.92-48,39.58-48.84a2,2,0,1,0-3-2.47c-.69.86-19.26,23.6-42.15,51.85l-1.65,2H684.5l4.92-6c21.78-26.8,38.92-48,39.58-48.84a2,2,0,1,0-3-2.46c-.69.86-19.26,23.59-42.15,51.84-.8,1-2.11,2.62-3.71,4.64l-.69.86H512.19v3.55S604.89,497,607.06,514.71c2.58,21,3.29,74,3.47,111h0c.08,16.43.08,27.87.07,34,0,2.14,0,3.7,0,4.49a13.77,13.77,0,0,1-1.8,7.32l-1.45.07-.9.06c-1.58.09-3.15.2-4.69.33l-.5,0q-2.52.21-4.95.48h-.06c-13.92,1.55-25.36,4.46-31.5,8l-.2.11a18.08,18.08,0,0,0-1.68,1.13c-.14.09-.28.19-.4.3a10.35,10.35,0,0,0-1,1c-.16.17-.33.33-.47.5a6,6,0,0,0-.49.77,4.84,4.84,0,0,0-.38.7,1.29,1.29,0,0,0-.07.13,7.15,7.15,0,0,0-.31,2.07v3.33c0,1.38,1.35,2.88,3.69,4.39a15748.27,15748.27,0,0,1,6.9,6.91,3301.87,3301.87,0,0,0,6.91,6.89,4845.32,4845.32,0,0,1,6.9,6.91,81105361.63,81105361.63,0,0,1,6.9,6.89,12598.3,12598.3,0,0,1,6.9,6.9,6296.08,6296.08,0,0,0,6.9,6.9,9011779.19,9011779.19,0,0,1,6.89,6.9,12584.6,12584.6,0,0,0,6.9,6.9,12598.3,12598.3,0,0,1,6.9,6.9,4500.29,4500.29,0,0,0,6.91,6.9,63862,63862,0,0,1,6.9,6.9,4191.56,4191.56,0,0,0,6.9,6.89,63008.68,63008.68,0,0,0,6.9,6.91,8.48,8.48,0,0,0,3.45,3.45,8,8,0,0,0,3.06,3.14c124-17.19,221.86-115.62,238.27-239.82l-2.19,2.68h-1.13l3.53-4.35c.31-2.49.66-5,.91-7.47l-6.8,8.37h-1.09l8-9.87c.22-2.32.37-4.65.53-7l-10.9,13.41h-1.09l12.1-14.93c.14-2.24.26-4.48.35-6.73-4.17,5.11-9.19,11.28-14.81,18.21h-1.09l15.94-19.66c.07-2.15.14-4.31.16-6.48-4.71,5.78-11.06,13.58-18.46,22.69h-1.09c7.92-9.76,14.71-18.14,19.59-24.18,0-.55,0-1.09,0-1.64,0-1.52-.09-3-.11-4.52-4.77,5.84-12.49,15.32-21.88,26.89H877.3l22.93-28.31c0-2-.07-4-.16-6-3.77,4.64-13.08,16-25.14,30.89h-1c12.89-15.86,22.64-28,26.14-32.34-.08-1.71-.22-3.41-.33-5.11a2.29,2.29,0,0,0-1.2.81C898,497.44,886.93,511,871.5,530Z" transform="translate(-341.39 -235)"/><g id="icon"><path class="cls-4" d="M677.53,685.17c-2.5-7.54-28.81-13.83-58.76-13.83s-56.25,6.28-58.75,13.83a7.15,7.15,0,0,0-.31,2.07v3.33c0,6.27,26.45,15.11,59.06,15.11s59.07-8.84,59.07-15.11v-3.33A7.22,7.22,0,0,0,677.53,685.17Z" transform="translate(-341.39 -235)"/><path class="cls-5" d="M618.76,671.34c-31.49,0-59,7-59,15s27.71,15,59.2,15,58.74-7,58.74-15S650.26,671.34,618.76,671.34Z" transform="translate(-341.39 -235)"/><path class="cls-4" d="M618.76,673.87c-13.89,0-25.15,3.52-25.15,7.87s11.26,7.86,25.15,7.86,25.16-3.53,25.16-7.86S632.67,673.87,618.76,673.87Zm0,14c-13.05,0-23.64-3.07-23.64-6.84s10.59-6.85,23.64-6.85,23.65,3.07,23.65,6.85S631.83,687.92,618.76,687.92Z" transform="translate(-341.39 -235)"/><path class="cls-4" d="M618.76,674.19c-11.56,0-20.93,2.7-20.93,6s9.37,6,20.93,6,20.93-2.66,20.93-6S630.33,674.19,618.76,674.19Zm0,9c-8.86,0-16-1.9-16-4.25s7.19-4.25,16-4.25,16,1.91,16,4.25S627.63,683.21,618.76,683.21Z" transform="translate(-341.39 -235)"/><path class="cls-4" d="M725.34,385.15V381.6H512.19v3.55S604.89,497,607.06,514.71c4,32.32,3.52,140.41,3.52,149.55s-5.86,10.35-5.86,13.07c0,2,6.3,3.58,14,3.58s14.06-1.61,14.06-3.58c0-2.72-5.87-3.94-5.87-13.07s-.45-117.24,3.51-149.55C632.64,497,725.34,385.15,725.34,385.15Z" transform="translate(-341.39 -235)"/><path class="cls-4" d="M627,625.74h-16.5c.11,22.08.06,35.16.06,38.53,0,9.12-5.86,10.35-5.86,13.07,0,2,6.3,3.58,14,3.58s14.06-1.61,14.06-3.58c0-2.72-5.87-3.94-5.87-13.07C627,660.9,626.9,647.82,627,625.74Z" transform="translate(-341.39 -235)"/><path class="cls-5" d="M627.06,511.14c0-5.1-3.71-9.26-8.3-9.26s-8.3,4.15-8.3,9.26c0,3.85,5.09,135.67,5.09,143s6.43,7.45,6.43,0S627.06,515,627.06,511.14Z" transform="translate(-341.39 -235)"/><path class="cls-5" d="M513,381.6s59.24,75.85,71.11,88.47c11.62,12.39,23.71,16.72,34.64,16.61,10.94.12,23-4.21,34.66-16.61,11.86-12.62,71.1-88.47,71.1-88.47Z" transform="translate(-341.39 -235)"/><path class="cls-6" d="M531.42,401.39c18.42,23.39,47.63,60.22,55.58,68.68,11.62,12.39,20.83,16.72,31.76,16.61,10.94.12,20.15-4.21,31.78-16.61,8-8.46,37.15-45.29,55.56-68.68Z" transform="translate(-341.39 -235)"/><path class="cls-7" d="M636.61,435.5c-17.26,21.67-29.92,38-29.34,38.48s13.89-15.2,31.48-36.45C649.59,424.44,646.54,423,636.61,435.5Z" transform="translate(-341.39 -235)"/><path class="cls-8" d="M650.64,417.15c-8.71-7.2-21.91-7.37-27.06,2.2-5.4,10,2.41,22.18,13.88,25.54a18.73,18.73,0,0,0,9.89.27Q651.23,435,656,423.82A21.34,21.34,0,0,0,650.64,417.15Z" transform="translate(-341.39 -235)"/><path class="cls-8" d="M656.94,437.45c1.77-4,1.39-9.07-.93-13.63q-4.76,11.14-8.65,21.35A14,14,0,0,0,656.94,437.45Z" transform="translate(-341.39 -235)"/><path class="cls-9" d="M646,433.69c-2,3.28-1.67,7.08.67,8.49a3.5,3.5,0,0,0,1.59.5c1.57-4.09,3.29-8.31,5.08-12.62C651.06,429.08,647.87,430.61,646,433.69Z" transform="translate(-341.39 -235)"/><path class="cls-10" d="M654.53,438.78c2-3.29,1.65-7.08-.68-8.49l-.47-.23c-1.79,4.31-3.51,8.53-5.08,12.62C650.45,442.87,653,441.38,654.53,438.78Z" transform="translate(-341.39 -235)"/><path class="cls-11" d="M654.28,434.74c-.35-1.82-3-3.44-4.83-4.35a8.74,8.74,0,0,0-3.41,3.3,7.56,7.56,0,0,0-.84,6.73,13.12,13.12,0,0,0,4.22.63C652.88,440.85,654.74,437.13,654.28,434.74Z" transform="translate(-341.39 -235)"/><path class="cls-12" d="M654.28,434.74a4.65,4.65,0,0,0-1.81-2.47q-1.83,4.47-3.51,8.77h.47C652.88,440.85,654.74,437.13,654.28,434.74Z" transform="translate(-341.39 -235)"/><path class="cls-13" d="M650.88,433.87a7.27,7.27,0,0,0-3-2.39,9.14,9.14,0,0,0-1.81,2.2,8,8,0,0,0-1.1,6,16.35,16.35,0,0,0,2.42.51C649.17,440.37,652.93,436.75,650.88,433.87Z" transform="translate(-341.39 -235)"/><path class="cls-14" d="M651.39,434.93l-1.69,4.2A4.46,4.46,0,0,0,651.39,434.93Z" transform="translate(-341.39 -235)"/><path class="cls-15" d="M729,326.71a2,2,0,1,0-3-2.46c-.69.86-19.26,23.59-42.15,51.84-2.87,3.55-11.9,14.93-20.27,25.49l5.08-.49,5.72-7h0c5.17-6.35,10.25-12.6,15.1-18.54C711.2,348.75,728.34,327.53,729,326.71Z" transform="translate(-341.39 -235)"/><path class="cls-16" d="M648.75,420.26c-1.68,2.91,2,2.49,3.09,1.32,5.63-6.84,11.16-13.6,16.8-20.49l-5.08.49C657.32,409.46,651.44,416.89,648.75,420.26Z" transform="translate(-341.39 -235)"/><path class="cls-3" d="M677.83,690.57v-3.33a7.22,7.22,0,0,0-.3-2.07.61.61,0,0,0-.06-.11,5.26,5.26,0,0,0-.42-.79,6.2,6.2,0,0,0-.42-.66,8.28,8.28,0,0,0-.63-.68c-.25-.25-.49-.49-.79-.75l-.76-.56c-.38-.27-.78-.54-1.23-.81-.25-.15-.52-.3-.79-.45-.54-.3-1.1-.59-1.71-.87-.26-.13-.53-.25-.8-.36-.69-.31-1.42-.61-2.19-.89l-.78-.29c-.85-.31-1.73-.61-2.66-.9l-.74-.22q-1.48-.45-3.08-.86l-.73-.19c-1.11-.27-2.26-.55-3.45-.8l-.75-.17c-1.21-.25-2.44-.48-3.72-.71l-.85-.16c-1.26-.22-2.56-.41-3.88-.61l-1-.15c-1.3-.17-2.62-.34-4-.49l-1.17-.14c-1.3-.15-2.62-.27-4-.39l-1.38-.13c-1.32-.1-2.65-.19-4-.27-.51,0-1-.08-1.51-.1l-1.38-.06a13.83,13.83,0,0,1-1.8-7.33c0-1.67,0-6.66,0-13.88,0-6.28,0-14.46.07-24.65h0c.19-37.06.9-90,3.48-111,2.17-17.67,94.87-129.56,94.87-129.56V381.6H684.49l4.93-6c21.78-26.8,38.92-48,39.58-48.84a2,2,0,1,0-3-2.46c-.69.86-19.26,23.59-42.15,51.84l-4.4,5.5H620.89v324C652.52,705.27,677.83,696.7,677.83,690.57Z" transform="translate(-341.39 -235)"/></g></g></g></svg>